<?xml version="1.0" encoding="UTF-8"?>
<svg id="Camada_1" xmlns="http://www.w3.org/2000/svg" viewBox="0 0 130 100">
  <defs>
    <style>
      .cls-1 {
        fill: #37cc2f;
      }
    </style>
  </defs>
  <g>
    <path d="M8.07,95.98l.91-2.79h.68l-1.28,3.57h-.6l-1.28-3.57h.68l.9,2.79Z"/>
    <path d="M12.14,96.76h-.62v-3.57h.62v3.57Z"/>
    <path d="M16.19,95.84c0-.16-.06-.28-.17-.36-.11-.09-.31-.17-.6-.26s-.52-.18-.69-.29c-.32-.2-.49-.47-.49-.8,0-.29.12-.52.35-.71.23-.19.54-.28.91-.28.25,0,.47.05.66.14s.35.22.46.39c.11.17.17.36.17.56h-.62c0-.19-.06-.33-.18-.44-.12-.11-.28-.16-.5-.16-.2,0-.36.04-.47.13-.11.09-.17.21-.17.36,0,.13.06.24.18.33s.32.17.6.25c.28.08.5.18.67.28.17.11.29.23.37.36.08.14.12.3.12.48,0,.3-.11.53-.34.71s-.54.26-.93.26c-.26,0-.5-.05-.71-.14s-.38-.23-.5-.4c-.12-.17-.18-.36-.18-.59h.62c0,.2.07.36.2.47.13.11.33.17.58.17.22,0,.38-.04.49-.13.11-.09.16-.2.16-.35Z"/>
    <path d="M20.78,95.93h-1.38l-.29.83h-.64l1.35-3.57h.56l1.35,3.57h-.65l-.29-.83ZM20.99,92.29c0,.18-.05.33-.16.45-.1.12-.23.18-.39.18-.06,0-.12,0-.17-.02-.05-.01-.11-.05-.2-.09-.09-.05-.15-.08-.18-.09-.04,0-.07-.01-.12-.01-.06,0-.11.02-.16.07s-.06.11-.06.18l-.36-.02c0-.18.05-.33.16-.45.1-.12.23-.18.39-.18.09,0,.21.04.34.11.13.07.24.11.32.11.06,0,.12-.02.16-.07.04-.05.07-.11.07-.18l.36.03ZM19.57,95.43h1.03l-.52-1.48-.52,1.48Z"/>
    <path d="M26.39,95.07c0,.35-.06.66-.18.92-.12.26-.29.47-.52.61s-.48.21-.78.21-.55-.07-.77-.21c-.23-.14-.4-.34-.52-.6-.12-.26-.19-.56-.19-.9v-.2c0-.35.06-.65.18-.92.12-.27.3-.47.52-.61s.48-.21.77-.21.55.07.77.21c.22.14.4.34.52.6.12.26.18.57.19.91v.2ZM25.77,94.88c0-.4-.07-.7-.22-.91-.15-.21-.36-.32-.64-.32s-.48.1-.63.31c-.15.21-.23.51-.23.89v.21c0,.39.08.69.23.91s.36.32.64.32.49-.1.63-.31c.15-.21.22-.51.22-.92v-.19Z"/>
    <path d="M33.83,95.6c-.04.38-.18.68-.42.89s-.57.32-.98.32c-.28,0-.53-.07-.75-.2-.22-.13-.38-.33-.5-.57-.12-.25-.18-.54-.18-.86v-.33c0-.34.06-.63.18-.89.12-.26.29-.45.51-.59.22-.14.48-.21.77-.21.39,0,.71.11.95.32.24.21.38.51.42.91h-.62c-.03-.26-.1-.44-.22-.55-.12-.11-.3-.17-.53-.17-.27,0-.48.1-.62.3s-.22.49-.22.87v.32c0,.39.07.68.21.88.14.2.34.3.61.3.24,0,.43-.05.55-.16.12-.11.2-.29.23-.55h.62Z"/>
    <path d="M38.65,95.07c0,.35-.06.66-.18.92-.12.26-.29.47-.52.61s-.48.21-.78.21-.55-.07-.77-.21c-.23-.14-.4-.34-.52-.6-.12-.26-.19-.56-.19-.9v-.2c0-.35.06-.65.18-.92.12-.27.3-.47.52-.61s.48-.21.77-.21.55.07.77.21c.22.14.4.34.52.6.12.26.18.57.19.91v.2ZM38.03,94.88c0-.4-.07-.7-.22-.91-.15-.21-.36-.32-.64-.32s-.48.1-.63.31c-.15.21-.23.51-.23.89v.21c0,.39.08.69.23.91s.36.32.64.32.49-.1.63-.31c.15-.21.22-.51.22-.92v-.19Z"/>
    <path d="M41.49,93.19l1.03,2.73,1.03-2.73h.8v3.57h-.62v-1.18l.06-1.57-1.05,2.75h-.44l-1.05-2.75.06,1.57v1.18h-.62v-3.57h.8Z"/>
    <path d="M47.13,95.43v1.32h-.62v-3.57h1.36c.4,0,.71.1.95.31s.35.48.35.82-.11.62-.34.82c-.23.19-.55.29-.96.29h-.74ZM47.13,94.93h.74c.22,0,.39-.05.5-.16s.17-.25.17-.45-.06-.35-.18-.46-.28-.17-.49-.18h-.76v1.24Z"/>
    <path d="M51.76,96.26h1.62v.49h-2.24v-3.57h.62v3.07Z"/>
    <path d="M57.36,95.17h-1.46v1.1h1.71v.49h-2.33v-3.57h2.31v.5h-1.69v.98h1.46v.49Z"/>
    <path d="M62.16,93.69h-1.11v3.07h-.61v-3.07h-1.1v-.5h2.83v.5Z"/>
    <path d="M65.76,95.93h-1.38l-.29.83h-.64l1.35-3.57h.56l1.35,3.57h-.65l-.29-.83ZM64.55,95.43h1.03l-.52-1.48-.52,1.48Z"/>
    <path d="M71.2,96.76v-3.57h1.05c.32,0,.59.07.84.21.24.14.43.34.57.6.13.26.2.55.2.89v.18c0,.34-.07.64-.2.89-.13.26-.33.45-.58.59-.25.14-.53.21-.86.21h-1.03ZM71.82,93.69v2.57h.4c.32,0,.57-.1.75-.31.17-.2.26-.5.27-.88v-.2c0-.39-.08-.68-.25-.89-.17-.2-.41-.31-.73-.31h-.43Z"/>
    <path d="M77.89,95.93h-1.38l-.29.83h-.64l1.35-3.57h.56l1.35,3.57h-.65l-.29-.83ZM76.69,95.43h1.03l-.52-1.48-.52,1.48Z"/>
    <path d="M85.2,95.84c0-.16-.06-.28-.17-.36-.11-.09-.31-.17-.6-.26s-.52-.18-.69-.29c-.32-.2-.49-.47-.49-.8,0-.29.12-.52.35-.71.23-.19.54-.28.91-.28.25,0,.47.05.66.14s.35.22.46.39c.11.17.17.36.17.56h-.62c0-.19-.06-.33-.18-.44-.12-.11-.28-.16-.5-.16-.2,0-.36.04-.47.13-.11.09-.17.21-.17.36,0,.13.06.24.18.33s.32.17.6.25c.28.08.5.18.67.28.17.11.29.23.37.36.08.14.12.3.12.48,0,.3-.11.53-.34.71s-.54.26-.93.26c-.26,0-.5-.05-.71-.14s-.38-.23-.5-.4c-.12-.17-.18-.36-.18-.59h.62c0,.2.07.36.2.47.13.11.33.17.58.17.22,0,.38-.04.49-.13.11-.09.16-.2.16-.35Z"/>
    <path d="M90.39,93.19v2.38c0,.38-.12.68-.36.9-.24.22-.57.33-.97.33s-.73-.11-.97-.33c-.24-.22-.36-.52-.36-.91v-2.38h.62v2.39c0,.24.06.42.18.55.12.13.3.19.53.19.48,0,.72-.25.72-.75v-2.37h.62Z"/>
    <path d="M94.42,95.93h-1.38l-.29.83h-.64l1.35-3.57h.56l1.35,3.57h-.65l-.29-.83ZM93.21,95.43h1.03l-.52-1.48-.52,1.48Z"/>
    <path d="M100.52,96.76h-.62v-3.57h.62v3.57Z"/>
    <path d="M105.44,96.29c-.13.17-.31.3-.54.38s-.49.13-.78.13-.56-.07-.79-.2-.41-.33-.53-.58c-.13-.25-.19-.55-.19-.88v-.28c0-.54.13-.96.39-1.26.26-.3.62-.45,1.08-.45.4,0,.71.1.95.3.23.2.37.48.42.85h-.61c-.07-.43-.32-.64-.75-.64-.28,0-.49.1-.63.3s-.22.49-.22.88v.27c0,.38.08.68.24.9.16.21.39.32.68.32.32,0,.54-.07.68-.22v-.7h-.73v-.47h1.35v1.37Z"/>
    <path d="M108.85,95.39h-.69v1.37h-.62v-3.57h1.25c.41,0,.73.09.95.28.22.18.34.45.34.8,0,.24-.06.44-.17.6s-.28.28-.48.37l.8,1.48v.03h-.66l-.71-1.37ZM108.16,94.89h.64c.21,0,.37-.05.49-.16.12-.11.18-.25.18-.43s-.05-.34-.16-.44-.27-.16-.49-.16h-.65v1.2Z"/>
    <path d="M114.18,95.17h-1.46v1.1h1.71v.49h-2.33v-3.57h2.31v.5h-1.69v.98h1.46v.49Z"/>
    <path d="M117.82,93.19h.62v2.5c0,.34-.11.61-.32.81-.21.2-.49.3-.84.3-.37,0-.66-.09-.86-.28-.2-.19-.3-.45-.3-.78h.62c0,.19.05.33.14.43.09.1.23.14.41.14.17,0,.3-.06.4-.17.1-.11.15-.26.15-.46v-2.5Z"/>
    <path d="M122.56,95.93h-1.38l-.29.83h-.64l1.35-3.57h.56l1.35,3.57h-.65l-.29-.83ZM121.35,95.43h1.03l-.52-1.48-.52,1.48Z"/>
  </g>
  <path d="M4.25,71.58h4.9c3.25,0,5.6.99,5.6,3.88,0,1.49-.87,2.94-2.73,3.43v.1c2.28.39,3.55,1.61,3.55,3.75,0,3.16-2.52,4.64-6.01,4.64h-5.31v-15.79ZM8.9,78.07c2.21,0,3.11-.8,3.11-2.27s-1.01-1.98-3.05-1.98h-1.92v4.25h1.86ZM9.27,85.13c2.32,0,3.56-.8,3.56-2.58,0-1.66-1.2-2.35-3.56-2.35h-2.22v4.93h2.22Z"/>
  <path d="M17.7,71.58h10.13v2.36h-7.32v4.04h6.2v2.36h-6.2v4.67h7.56v2.36h-10.37v-15.79Z"/>
  <path d="M34.1,73.94h-4.98v-2.36h12.76v2.36h-4.98v13.43h-2.81v-13.43Z"/>
  <path d="M43.02,71.58h2.82v6.33h5.4v-6.33h2.82v15.79h-2.82v-7h-5.4v7h-2.82v-15.79Z"/>
  <path d="M56.83,71.58h10.13v2.36h-7.32v4.04h6.2v2.36h-6.2v4.67h7.56v2.36h-10.37v-15.79Z"/>
  <path d="M70.28,71.58h2.79v13.43h7.41v2.36h-10.2v-15.79Z"/>
  <g>
    <path class="cls-1" d="M84.29,85.31l.96-1.3c.96.97,2.32,1.81,4.2,1.81,2,0,3.49-1.09,3.49-2.8,0-1.84-1.47-3.07-5.3-3.07v-1.52c3.47,0,4.8-1.26,4.8-2.87,0-1.47-1.22-2.42-2.98-2.42-1.38,0-2.64.65-3.6,1.55l-1.01-1.26c1.22-1.11,2.8-1.93,4.68-1.93,2.75,0,4.84,1.43,4.84,3.91,0,1.86-1.31,3.04-3.12,3.67v.1c1.95.43,3.63,1.79,3.63,3.91,0,2.73-2.39,4.4-5.3,4.4-2.52,0-4.2-1.04-5.28-2.17Z"/>
    <path class="cls-1" d="M97.14,80.07c0-6.18,2.94-8.57,6.13-8.57,1.79,0,3.12.7,4.09,1.64l-1.06,1.26c-.76-.75-1.81-1.23-2.91-1.23-2.39,0-4.45,1.76-4.45,6.91,0,3.79,1.38,5.84,3.81,5.84,1.72,0,3.08-1.35,3.08-3.38s-1.08-3.26-3.1-3.26c-1.17,0-2.57.6-3.83,2.17l-.07-1.57c1.22-1.28,2.73-2.1,4.25-2.1,2.71,0,4.57,1.59,4.57,4.76,0,2.95-2.27,4.95-4.89,4.95-3.19,0-5.6-2.46-5.6-7.41Z"/>
    <path class="cls-1" d="M114.65,71.5c-3.26,0-5.26,2.78-5.26,7.94s2,8.04,5.26,8.04,5.26-2.92,5.26-8.04-2-7.94-5.26-7.94ZM114.65,85.87c-2.04,0-3.49-2-3.49-6.43s1.45-6.33,3.49-6.33,3.49,1.91,3.49,6.33-1.44,6.43-3.49,6.43Z"/>
    <path class="cls-1" d="M114.65,71.5c-3.26,0-5.26,2.78-5.26,7.94s2,8.04,5.26,8.04,5.26-2.92,5.26-8.04-2-7.94-5.26-7.94ZM114.65,85.87c-2.04,0-3.49-2-3.49-6.43s1.45-6.33,3.49-6.33,3.49,1.91,3.49,6.33-1.44,6.43-3.49,6.43Z"/>
    <path class="cls-1" d="M123.69,70.32c-1.09,0-2.05.83-2.05,2.19s.96,2.22,2.05,2.22,2.05-.83,2.05-2.22-.96-2.19-2.05-2.19ZM123.69,73.79c-.63,0-1.19-.48-1.19-1.28s.56-1.26,1.19-1.26,1.19.48,1.19,1.26-.55,1.28-1.19,1.28Z"/>
    <g>
      <path class="cls-1" d="M64.73,36.37l-3.72,2.18c-.34.2-.55.57-.55.97v3.9c0,.39.2.75.54.96l3.59,2.18c.34.21.76.22,1.11.03l3.61-2.16c.36-.19.59-.57.59-.99v-3.83c0-.4-.21-.77-.56-.97l-3.47-2.27c-.35-.2-.78-.2-1.13,0Z"/>
      <path class="cls-1" d="M87.51,36.47c0,.13,0,.26,0,.39,0,.38,0,.76,0,1.15,0,.15,0,.3,0,.45,0,.38,0,.76,0,1.15-.02,2.96-.04,5.93-.07,8.89-.01,1.03-.75,2.27-1.64,2.79-.6.34-1.21.69-1.81,1.03-.28.16-.56.32-.83.48-.91.52-1.82,1.04-2.72,1.56-2.52,1.44-5.03,2.88-7.54,4.31-.42.24-.83.48-1.25.71-.26.15-.51.3-.77.44l-.26.15c-.17.1-.34.19-.51.29-.08.05-.16.09-.25.14-.16.09-.32.18-.48.28-.15.09-.31.18-.46.27-.33.19-.67.38-1,.57-.16.09-.31.18-.47.27-.04.02-.09.05-.13.07-.08.04-.15.08-.21.12-.05.03-.1.06-.15.09-.01,0-.03.02-.05.03-.01,0-.03.01-.04.02-.89.51-2.35.51-3.25,0-6.49-3.71-12.99-7.43-19.49-11.14-.89-.51-1.62-1.77-1.62-2.8v-13.38c0-1.01.71-2.25,1.58-2.77,6.51-3.73,13.02-7.45,19.53-11.17,0,0,0,0,.01,0,.54-.31,1.07-.61,1.61-.92l3.35,2.46v4.25c-.54.31-1.08.62-1.62.93-.01,0-.03.01-.04.02-.03.02-.07.04-.1.06-.62.36-1.24.71-1.86,1.06-2.42,1.39-4.84,2.77-7.27,4.16-.07.04-.15.08-.22.12-1.72.98-3.43,1.97-5.15,2.95-.08.04-.15.09-.23.13-.06.03-.11.07-.17.1-.04.03-.09.05-.13.08-.02.01-.03.02-.05.03-.87.53-1.58,1.76-1.58,2.78v4.88c0,1.03.73,2.29,1.62,2.8,2.24,1.29,4.49,2.56,6.73,3.85l5.11,2.92c.89.52,2.36.52,3.25,0,.01,0,.02,0,.03-.01.03-.01.06-.03.08-.05.24-.13.48-.27.71-.41.11-.06.21-.12.32-.18.19-.11.38-.22.57-.32,2.55-1.46,5.1-2.92,7.65-4.38.68-.39,1.36-.77,2.04-1.16l.03-.02c.89-.51,1.62-1.77,1.62-2.8v-5.32c0-1.03-.73-2.29-1.62-2.8,0,0,0,0-.01-.01-.05-.03-.1-.06-.15-.08-.2-.12-.41-.24-.61-.35-.12-.07-.23-.13-.35-.19-.28-.16-.56-.33-.83-.48-.08-.05-.15-.09-.23-.14-.51-.29-1.01-.58-1.52-.87-.07-.04-.14-.07-.21-.11-.54-.31-1.08-.62-1.62-.93.52-.3,1.05-.6,1.57-.9,1.32-.76,2.64-1.51,3.96-2.27.89-.51,1.62-1.77,1.62-2.8v-5.32c0-.57-.22-1.21-.57-1.75-.27-.42-.62-.78-1-1.01-.03-.02-.07-.04-.1-.06-.02,0-.03-.01-.05-.03-.05-.03-.1-.06-.16-.09l-1.06-.61c-.14-.08-.28-.16-.42-.23-.15-.09-.31-.18-.46-.27-.55-.32-1.11-.64-1.66-.95-.02-.01-.04-.03-.06-.04,0,0,0,0,0,0-.16-.09-.33-.19-.49-.28-.1-.05-.2-.12-.3-.17-.05-.03-.09-.06-.14-.08-.16-.09-.32-.18-.48-.28-.1-.06-.18-.11-.25-.15l-.1-.06-.19-.11-.31-.18-.24-.14-.43-.24-.31-.18-.16-.09-.08-.05-4.04-2.31h0c-.88-.51-2.32-.51-3.22-.02l-5.14,2.9c-2.48,1.4-4.36,2.44-6.84,3.84-.02.02-.17.1-.18.12-.5.47-.63,1.88-.47,2.34l-1.44.85-5.44,3.08c-.54.31-1.09.62-1.63.92v-8.71s0-.07,0-.1c.04-.99.73-2.16,1.57-2.67,6.51-3.72,13.02-7.45,19.54-11.17,0,0,0,0,.01,0,.45-.25,1.03-.38,1.61-.38s1.17.13,1.62.38c5.6,3.2,11.21,6.41,16.82,9.61.64.37,1.27.73,1.91,1.09.04.03.09.05.13.07.01.01.03.02.05.03.03.02.06.04.09.05.87.53,1.58,1.76,1.58,2.78v9.6c0,1.03-.39,2.49-.87,3.26,0,0,0,.01,0,.01-.58.92-1.15,1.84-1.73,2.76.26.28.52.57.78.85.34.37.68.74,1.03,1.11.03.03.06.06.09.1.45.51.79,1.19.81,1.57Z"/>
    </g>
  </g>
</svg>