<?xml version="1.0" encoding="UTF-8"?>
<svg id="Camada_1" xmlns="http://www.w3.org/2000/svg" viewBox="0 0 130 100">
  <defs>
    <style>
      .cls-1 {
        fill: #181818;
      }
    </style>
  </defs>
  <g>
    <path class="cls-1" d="M49.85,10.2l-1.11-3.23,1.59-.55c.63-.22,1.09,0,1.27.55.1.28,0,.57-.19.74.31,0,.6.15.76.61.2.59-.06,1.1-.87,1.38l-1.45.5ZM49.58,7.31l.24.7.85-.29c.27-.09.37-.26.29-.49-.09-.25-.25-.3-.57-.2l-.81.28ZM51.16,9.13c.31-.11.43-.37.34-.63-.1-.28-.33-.34-.63-.24l-.87.3.3.87.86-.29Z"/>
    <path class="cls-1" d="M52.84,9.19l-.88-3.3,2.43-.65.15.58-1.76.47.19.71,1.62-.43.15.58-1.62.43.23.85,1.84-.49.16.59-2.51.67Z"/>
    <path class="cls-1" d="M56.58,8.27l-.53-2.77-1.01.2-.11-.59,2.73-.53.11.59-1.02.2.53,2.77-.7.14Z"/>
    <path class="cls-1" d="M60.7,7.65l-.18-1.52-1.32.15.18,1.52-.71.08-.4-3.39.71-.08.15,1.28,1.32-.15-.15-1.28.72-.08.4,3.39-.72.08Z"/>
    <path class="cls-1" d="M61.86,7.53l-.16-3.41,2.51-.11.03.6-1.81.08.03.73,1.67-.08.03.6-1.67.08.04.88,1.9-.09.03.61-2.59.12Z"/>
    <path class="cls-1" d="M64.79,7.41l.07-3.41.71.02-.06,2.79,1.69.04v.62s-2.42-.05-2.42-.05Z"/>
    <path class="cls-1" d="M70.1,5.72c.57.07.72-.13.75-.38.04-.34-.07-.54-.38-.57-.26-.03-.47.15-.52.5l-.62-.07c.08-.65.58-1.03,1.22-.95.59.07,1.01.51.94,1.05-.04.31-.21.59-.49.71.31.17.46.47.4.9-.08.68-.62,1.04-1.33.95-.7-.09-1.06-.56-.98-1.25l.64.08c-.05.39.1.59.44.63.28.03.51-.15.55-.5.05-.4-.14-.56-.69-.62l.06-.46Z"/>
    <path class="cls-1" d="M73.7,5.59c.02-.21-.08-.34-.3-.38-.36-.07-.59.25-.77.96.19-.15.41-.25.75-.19.53.1.87.59.74,1.29-.13.69-.67,1.12-1.33.99-.79-.15-1.07-.8-.87-1.9.25-1.34.77-1.82,1.6-1.67.54.1.85.47.82,1.02l-.65-.12ZM73.48,7.18c.07-.38-.08-.66-.36-.72-.29-.05-.55.15-.62.52-.07.38.07.68.39.74.3.06.52-.19.59-.55Z"/>
    <path class="cls-1" d="M74.74,6.77c.31-1.24.86-1.65,1.57-1.46.71.18,1.02.8.71,2.03s-.89,1.69-1.6,1.5c-.71-.18-.99-.82-.67-2.07ZM76.35,7.2c.23-.92.16-1.29-.15-1.37-.31-.08-.56.21-.79,1.12-.23.92-.16,1.29.16,1.37.31.08.55-.22.78-1.12Z"/>
    <path class="cls-1" d="M77.73,7.03c.13-.42.49-.62.9-.49.42.13.59.49.46.91-.13.42-.48.62-.9.48-.43-.13-.59-.5-.46-.91ZM78.74,7.35c.08-.27.02-.44-.2-.5-.21-.07-.36.03-.45.3-.08.27-.02.44.19.5.22.07.37-.03.45-.3Z"/>
    <path class="cls-1" d="M84.59,10.57c-.13.28-.34.47-.62.57-.29.1-.57.09-.84-.04-.28-.13-.47-.34-.58-.63-.1-.29-.09-.57.04-.85.13-.28.34-.47.63-.57.29-.1.57-.09.84.04.28.13.47.34.57.63.1.29.09.57-.04.84Z"/>
    <path class="cls-1" d="M88.28,14.37l.86-3.75.25.16-.79,3.36,2.78-2.06.25.16-3.1,2.27-.24-.16Z"/>
    <path class="cls-1" d="M92.36,12.82l.22.16-2.14,2.9-.22-.16,2.14-2.9Z"/>
    <path class="cls-1" d="M92.11,17.25c-.26-.21-.43-.45-.51-.71s-.07-.52.03-.78l.27.04c-.09.21-.11.43-.05.65.06.22.2.42.42.6.23.19.44.28.65.27.21,0,.38-.09.51-.25.13-.15.17-.32.12-.5s-.16-.41-.34-.69c-.06-.11-.11-.18-.14-.23-.03-.05-.07-.12-.12-.21-.05-.09-.09-.16-.11-.22s-.04-.12-.05-.2c-.02-.08-.02-.15-.01-.21s.03-.13.06-.2c.03-.07.07-.14.13-.21.19-.23.41-.34.69-.34.27,0,.53.09.77.29.22.18.36.39.42.62.06.23.06.47,0,.7l-.26-.05c.13-.43.02-.79-.32-1.07-.19-.16-.38-.23-.58-.23-.2,0-.36.09-.49.24-.12.15-.16.31-.12.47s.16.38.33.66c.11.18.19.32.25.43.06.1.11.23.16.37.05.14.06.28.03.4s-.09.24-.18.36c-.19.23-.42.35-.71.35s-.56-.11-.84-.34Z"/>
    <path class="cls-1" d="M95.41,20.18l.38-.9-1.3-1.25-.89.42-.21-.2,3.5-1.63.21.2-1.49,3.56-.21-.2ZM94.74,17.91l1.16,1.11.87-2.07-2.03.95ZM97.39,16.3c-.01-.19-.06-.31-.13-.36-.07-.04-.17,0-.31.14l-.16-.16c.13-.14.25-.21.37-.24.11-.02.21.01.28.09.07.08.11.2.13.36.04.4.18.48.43.22l.16.16c-.19.2-.37.27-.52.22-.15-.05-.24-.2-.26-.44Z"/>
    <path class="cls-1" d="M98.33,22.71c-.51-.03-.93-.25-1.27-.64-.34-.39-.49-.84-.46-1.35.04-.51.25-.93.64-1.27.39-.34.84-.49,1.35-.46.51.03.93.25,1.27.64.34.39.49.84.46,1.35-.04.51-.25.93-.64,1.27-.39.34-.84.49-1.35.46ZM96.87,20.75c-.03.44.1.82.39,1.15s.65.51,1.09.54c.44.03.82-.1,1.15-.39.33-.29.52-.65.55-1.09.03-.44-.1-.82-.39-1.15-.29-.33-.65-.51-1.09-.54s-.82.1-1.15.39c-.33.29-.52.65-.55,1.09Z"/>
    <path class="cls-1" d="M100.65,26.84c-.3-.45-.39-.93-.29-1.42.11-.49.38-.88.81-1.17s.9-.38,1.39-.28c.49.1.89.38,1.19.83.18.28.28.57.3.89s-.04.61-.18.88l-.25-.13c.12-.22.17-.47.16-.74-.01-.27-.1-.52-.25-.76-.26-.39-.59-.63-1.01-.71-.42-.08-.82,0-1.2.24-.38.25-.61.58-.7,1-.09.42-.01.82.24,1.21.15.24.35.41.6.54.24.12.5.17.75.15l.02.28c-.3.02-.6-.04-.89-.18-.29-.15-.52-.36-.7-.64Z"/>
    <path class="cls-1" d="M103.77,31.23c-.49-.15-.85-.46-1.09-.92s-.28-.93-.13-1.42c.15-.49.46-.85.92-1.09.46-.24.93-.28,1.42-.13.49.15.85.46,1.09.92.24.46.28.93.13,1.42-.15.49-.46.85-.92,1.09-.46.24-.93.28-1.42.13ZM102.8,28.98c-.13.42-.1.82.11,1.21.2.39.52.65.93.78.42.13.82.09,1.21-.11.39-.2.65-.51.79-.93.13-.42.1-.82-.11-1.21-.2-.39-.52-.65-.93-.78-.42-.13-.82-.09-1.21.11-.39.2-.66.51-.79.93Z"/>
    <path class="cls-1" d="M108.48,34.42l-3.35,1.33-.1-.25,2.97-1.18-2.55-.42-.02-.04,1.56-2.06-2.97,1.18-.1-.25,3.35-1.33.13.32-1.51,1.98,2.46.41.13.32Z"/>
    <path class="cls-1" d="M109.27,36.92c.09.31.07.6-.08.86-.14.27-.37.44-.67.53-.31.09-.59.07-.85-.08-.26-.14-.44-.37-.53-.68l-.27-.91-1.32.39-.08-.26,3.45-1.03.35,1.17ZM107.38,37.48c.07.24.21.41.41.51.2.11.42.12.66.05.24-.07.41-.21.52-.41.11-.2.13-.42.06-.65l-.27-.91-1.64.49.27.91Z"/>
    <path class="cls-1" d="M106.65,40.07l.37,1.66-.25.06-.43-1.92,3.51-.79.06.27-3.26.73Z"/>
    <path class="cls-1" d="M107.21,42.77l.28,1.78-.25.04-.32-2.05,3.56-.56.32,2.02-.25.04-.27-1.75-1.38.22.25,1.63-.25.04-.25-1.63-1.41.22Z"/>
    <path class="cls-1" d="M111.11,47.35l-.26.02-.1-1.13-3.33.29-.02-.28,3.33-.29-.1-1.13.26-.02.22,2.53Z"/>
    <path class="cls-1" d="M107.58,50.59l.91-.37-.03-1.8-.92-.34v-.29s3.62,1.34,3.62,1.34v.29s-3.57,1.45-3.57,1.45v-.29ZM108.72,48.51l.03,1.61,2.08-.84-2.11-.77Z"/>
    <path class="cls-1" d="M110.91,54.92c-.05.49-.27.87-.65,1.15-.38.28-.82.4-1.32.34-.5-.05-.91-.26-1.22-.62-.31-.36-.44-.78-.39-1.27l.15-1.34,3.58.39-.15,1.35ZM107.59,54.56c-.05.42.07.77.33,1.07.27.3.62.47,1.05.52.43.05.81-.05,1.13-.28s.51-.56.55-.98l.12-1.07-3.07-.33-.12,1.07Z"/>
    <path class="cls-1" d="M106.56,59.33l.97-.17.34-1.77-.83-.52.06-.28,3.27,2.06-.06.28-3.8.68.05-.28ZM108.1,57.54l-.31,1.58,2.21-.39-1.9-1.19Z"/>
    <path class="cls-1" d="M105.51,62.89c.1-.32.26-.56.47-.74.22-.17.46-.26.73-.26l.06.27c-.23,0-.44.06-.62.2-.18.14-.31.34-.4.62-.09.28-.09.51-.01.7.08.19.22.32.42.38.19.06.36.03.51-.08.15-.11.32-.3.51-.58.08-.1.13-.17.16-.21.03-.04.08-.11.15-.19s.12-.14.16-.18c.04-.04.1-.08.17-.13.07-.05.13-.08.19-.09.06-.01.13-.02.21-.02.08,0,.16.01.24.04.28.09.47.26.58.51.11.25.11.53.02.82-.08.27-.22.48-.42.62-.19.15-.41.23-.65.25l-.05-.26c.45-.04.74-.27.87-.69.07-.24.07-.44,0-.62s-.22-.3-.41-.36c-.19-.06-.35-.04-.48.06s-.3.29-.49.55c-.13.17-.23.3-.31.39-.07.09-.17.19-.28.29s-.24.16-.36.18c-.12.02-.26.01-.4-.03-.28-.09-.48-.27-.59-.53-.11-.26-.11-.56,0-.9Z"/>
    <path class="cls-1" d="M104.35,67c-.12-.31-.11-.65.04-1.02.15-.37.38-.62.68-.76.3-.14.63-.13.98.01l2.22.9-.1.25-2.22-.9c-.28-.11-.54-.12-.77-.02-.24.1-.42.3-.54.61-.13.31-.14.58-.04.82s.29.41.57.53l2.22.9-.1.25-2.22-.9c-.35-.14-.59-.37-.71-.68Z"/>
    <path class="cls-1" d="M102.46,70.24l.98.1.81-1.61-.66-.73.13-.26,2.59,2.87-.13.26-3.84-.38.13-.26ZM104.44,68.93l-.72,1.43,2.23.22-1.51-1.66Z"/>
    <path class="cls-1" d="M104.18,74.41l-.14.23-3.05-1.91.14-.23,3.05,1.91Z"/>
    <path class="cls-1" d="M99.76,77.43l-.11-.08c-.36-.26-.58-.61-.64-1.05-.06-.44.06-.87.37-1.29.32-.44.73-.71,1.23-.79.5-.08.96.03,1.38.34.42.31.68.71.76,1.2.08.5-.03.96-.35,1.4-.19.27-.43.47-.72.6s-.59.18-.89.15l.02-.28c.25.04.51,0,.75-.11s.46-.28.62-.51c.27-.38.37-.78.3-1.2-.07-.42-.29-.77-.66-1.03-.36-.26-.76-.36-1.19-.3-.43.06-.78.29-1.06.68-.25.34-.35.69-.32,1.03s.18.63.45.86l.9-1.24.21.15-1.06,1.46Z"/>
    <path class="cls-1" d="M96.36,78.82l1.68.31.74-.86-1.11-.97.18-.21,2.72,2.36-.93,1.07c-.19.22-.43.34-.73.36s-.55-.06-.77-.26c-.18-.16-.3-.36-.34-.59-.04-.24-.01-.46.09-.68l-1.73-.32.21-.24ZM100.19,79.5l-1.22-1.06-.75.87c-.14.17-.21.36-.19.58.02.22.11.4.28.55.17.15.36.21.58.2.22-.01.4-.1.55-.27l.75-.87Z"/>
    <path class="cls-1" d="M95.61,79.97l-1.28,1.27-.18-.18,1.47-1.46,2.54,2.56-1.45,1.44-.18-.18,1.26-1.25-.99-.99-1.17,1.16-.18-.18,1.17-1.16-1.01-1.02Z"/>
    <path class="cls-1" d="M92.82,82.15c.19-.16.39-.27.6-.31.21-.05.41-.02.61.07l-.08.26c-.3-.16-.62-.1-.95.19-.2.17-.32.36-.35.57-.03.21.03.41.2.59l1.7,1.98-.21.18-1.7-1.98c-.22-.25-.3-.52-.26-.8.05-.28.2-.53.45-.75Z"/>
    <path class="cls-1" d="M89.3,84.98l.83.53,1.45-1.07-.26-.94.23-.17,1.01,3.73-.23.17-3.26-2.07.23-.17ZM91.65,84.7l-1.29.95,1.89,1.21-.6-2.16Z"/>
    <path class="cls-1" d="M84.7,89.38c-.14-.27-.17-.55-.08-.84.09-.29.27-.51.54-.65.27-.14.55-.17.85-.08.29.09.51.27.65.54.15.27.17.56.08.85-.09.29-.27.51-.54.65-.27.14-.55.17-.85.08-.29-.09-.51-.27-.65-.54Z"/>
    <path class="cls-1" d="M80.65,89.61l1.15,3.22-1.58.57c-.63.23-1.09,0-1.28-.53-.1-.28-.01-.57.18-.74-.31,0-.6-.14-.77-.6-.21-.59.05-1.1.86-1.39l1.45-.52ZM79.34,90.69c-.31.11-.42.38-.33.64.1.28.33.34.63.23l.86-.31-.31-.87-.85.31ZM80.95,92.5l-.25-.7-.85.3c-.27.1-.36.27-.28.49.09.25.26.3.57.19l.81-.29Z"/>
    <path class="cls-1" d="M77.67,90.66l.92,3.29-2.42.68-.16-.57,1.75-.49-.2-.7-1.61.45-.16-.58,1.61-.45-.24-.85-1.83.51-.16-.58,2.5-.7Z"/>
    <path class="cls-1" d="M73.93,91.62l.57,2.76,1.01-.21.12.58-2.72.56-.12-.58,1.01-.21-.57-2.76.7-.14Z"/>
    <path class="cls-1" d="M69.83,92.3l.2,1.52,1.32-.17-.2-1.52.71-.09.44,3.39-.71.09-.17-1.28-1.32.17.17,1.28-.71.09-.44-3.39.71-.09Z"/>
    <path class="cls-1" d="M68.67,92.43l.2,3.41-2.51.14-.03-.6,1.81-.1-.04-.73-1.67.1-.03-.6,1.67-.1-.05-.88-1.9.11-.03-.61,2.59-.15Z"/>
    <path class="cls-1" d="M65.73,92.58l-.03,3.42h-.72s.03-2.8.03-2.8l-1.69-.02v-.62s2.41.02,2.41.02Z"/>
    <path class="cls-1" d="M60.45,94.35c-.57-.06-.71.14-.74.39-.04.34.08.54.38.57.26.03.47-.16.51-.51l.62.07c-.07.65-.57,1.04-1.21.97-.59-.06-1.01-.49-.95-1.04.03-.31.2-.59.48-.72-.31-.17-.46-.46-.42-.89.07-.68.61-1.05,1.32-.97.71.08,1.07.55.99,1.24l-.64-.07c.04-.39-.11-.59-.44-.62-.28-.03-.51.15-.55.51-.04.4.15.55.7.61l-.05.47Z"/>
    <path class="cls-1" d="M56.85,94.52c-.02.21.08.34.3.38.36.06.59-.25.76-.97-.19.15-.41.25-.74.19-.53-.09-.88-.58-.76-1.28.12-.69.65-1.12,1.32-1.01.79.14,1.08.78.89,1.89-.23,1.35-.75,1.83-1.58,1.69-.54-.09-.86-.46-.83-1.01l.65.11ZM57.06,92.92c-.07.39.08.66.37.71.29.05.54-.16.61-.53.07-.39-.07-.68-.4-.74-.3-.05-.52.2-.58.56Z"/>
    <path class="cls-1" d="M55.8,93.35c-.3,1.24-.84,1.65-1.55,1.48s-1.03-.79-.73-2.02.87-1.7,1.58-1.52c.71.17,1,.81.7,2.06ZM54.18,92.94c-.22.92-.15,1.29.17,1.37.32.08.55-.22.77-1.13.22-.93.14-1.29-.17-1.37-.31-.08-.55.23-.77,1.13Z"/>
    <path class="cls-1" d="M52.8,93.13c-.13.42-.48.62-.9.5-.42-.13-.6-.48-.47-.91.13-.42.47-.62.89-.49.43.13.6.49.47.91ZM51.79,92.83c-.08.27-.01.44.2.5.21.06.36-.04.44-.31.08-.27.01-.44-.2-.5-.22-.07-.37.04-.45.31Z"/>
    <path class="cls-1" d="M45.9,89.68c.13-.28.33-.47.62-.58.28-.11.57-.1.84.03.28.13.48.33.58.62.11.28.1.57-.03.85-.13.28-.34.48-.62.58-.29.1-.57.1-.84-.03-.28-.13-.47-.33-.58-.62-.11-.29-.1-.57.03-.84Z"/>
    <path class="cls-1" d="M42.16,85.93l-.81,3.76-.25-.16.75-3.37-2.75,2.09-.25-.16,3.07-2.31.24.15Z"/>
    <path class="cls-1" d="M38.1,87.53l-.22-.16,2.1-2.92.22.16-2.1,2.92Z"/>
    <path class="cls-1" d="M38.3,83.09c.26.21.43.44.52.71.09.26.08.52-.02.78l-.27-.04c.09-.21.1-.43.04-.65-.06-.22-.2-.41-.43-.59-.23-.18-.44-.27-.65-.26-.21,0-.37.09-.51.26-.12.15-.16.32-.11.5.05.18.17.41.35.69.06.11.11.18.14.23s.07.12.13.21c.05.09.09.16.11.22.02.05.04.12.06.2.02.08.03.15.02.21,0,.06-.03.13-.06.2-.03.07-.07.14-.12.21-.18.23-.41.34-.68.35-.27,0-.53-.09-.77-.28-.22-.18-.36-.38-.43-.62-.07-.23-.07-.47,0-.7l.26.04c-.13.43-.01.79.33,1.06.19.15.39.23.58.22.2,0,.36-.09.48-.25.12-.15.16-.31.11-.47-.05-.16-.16-.38-.34-.65-.11-.18-.19-.32-.25-.43-.06-.1-.12-.23-.17-.37-.05-.14-.06-.28-.04-.4.02-.12.08-.24.17-.36.19-.23.42-.35.7-.36.28,0,.56.1.84.33Z"/>
    <path class="cls-1" d="M33.03,84.11c.02.19.06.31.13.36.07.04.17,0,.3-.14l.17.15c-.13.14-.25.22-.37.24-.11.02-.21,0-.28-.09-.07-.08-.12-.2-.13-.36-.04-.4-.19-.47-.44-.21l-.17-.15c.19-.2.36-.28.52-.23.15.05.24.2.26.44ZM34.96,80.21l-.37.91,1.32,1.23.88-.43.21.2-3.48,1.67-.21-.2,1.44-3.58.21.2ZM35.66,82.47l-1.17-1.1-.84,2.08,2.02-.98Z"/>
    <path class="cls-1" d="M32.01,77.71c.51.03.94.23,1.28.62.35.39.5.83.47,1.34-.03.51-.24.94-.62,1.28-.38.34-.83.5-1.34.47-.51-.03-.94-.23-1.28-.62s-.5-.83-.47-1.34c.03-.51.24-.94.62-1.28.38-.34.83-.5,1.34-.47ZM33.49,79.66c.03-.44-.11-.82-.4-1.15-.29-.33-.66-.51-1.1-.53-.44-.02-.82.11-1.15.41-.33.29-.51.66-.53,1.1-.03.44.11.82.4,1.15.29.33.66.51,1.1.53.44.02.82-.11,1.15-.41.33-.29.51-.66.54-1.1Z"/>
    <path class="cls-1" d="M29.63,73.61c.3.45.4.92.3,1.41-.1.49-.37.89-.8,1.18-.43.29-.9.39-1.39.3-.49-.09-.89-.36-1.2-.81-.18-.27-.29-.57-.31-.88s.03-.61.17-.88l.25.12c-.12.22-.17.47-.15.74.02.27.11.52.26.75.26.39.6.62,1.02.7.42.08.82,0,1.19-.26.37-.25.6-.59.69-1.01.09-.42,0-.82-.26-1.21-.16-.23-.36-.41-.6-.53-.25-.12-.5-.17-.76-.14l-.02-.28c.3-.03.6.03.89.17.29.14.52.35.71.63Z"/>
    <path class="cls-1" d="M26.46,69.26c.49.15.86.45,1.1.9.25.46.29.93.15,1.42-.15.49-.45.85-.9,1.1-.45.24-.92.29-1.41.15-.49-.15-.86-.45-1.1-.9-.25-.46-.29-.93-.15-1.42s.45-.85.9-1.1c.45-.24.92-.29,1.41-.15ZM27.46,71.5c.13-.42.09-.82-.12-1.21-.21-.39-.52-.65-.94-.77-.42-.12-.82-.08-1.21.13-.39.21-.65.52-.78.94-.13.42-.09.82.12,1.21.21.39.52.65.94.77s.82.08,1.21-.13.65-.52.78-.94Z"/>
    <path class="cls-1" d="M21.71,66.14l3.33-1.37.1.25-2.96,1.22,2.55.39.02.04-1.54,2.08,2.96-1.22.1.25-3.33,1.37-.13-.32,1.48-2-2.46-.37-.13-.32Z"/>
    <path class="cls-1" d="M20.89,63.65c-.1-.31-.07-.59.06-.86.14-.27.36-.45.67-.54.3-.1.59-.07.85.07.26.14.45.36.54.67l.28.91,1.31-.41.08.26-3.44,1.08-.37-1.17ZM22.77,63.06c-.07-.24-.21-.41-.41-.51-.2-.1-.42-.12-.66-.05-.24.07-.41.21-.52.41-.11.2-.12.42-.05.65l.28.91,1.63-.51-.28-.91Z"/>
    <path class="cls-1" d="M23.46,60.46l-.39-1.65.25-.06.46,1.92-3.5.83-.06-.27,3.25-.78Z"/>
    <path class="cls-1" d="M22.88,57.77l-.3-1.78.25-.04.35,2.04-3.55.6-.34-2.02.25-.04.3,1.75,1.38-.23-.27-1.62.25-.04.27,1.62,1.41-.24Z"/>
    <path class="cls-1" d="M18.92,53.24l.26-.03.11,1.13,3.33-.33.03.28-3.33.33.11,1.13-.26.03-.25-2.53Z"/>
    <path class="cls-1" d="M22.4,49.95l-.91.38.05,1.8.93.32v.29s-3.63-1.29-3.63-1.29v-.29s3.55-1.5,3.55-1.5v.29ZM21.29,52.04l-.05-1.61-2.07.86,2.11.74Z"/>
    <path class="cls-1" d="M19.02,45.67c.05-.49.26-.87.64-1.16.38-.29.82-.41,1.32-.36.5.05.91.25,1.23.6.32.35.45.77.4,1.26l-.13,1.35-3.58-.34.13-1.35ZM22.35,45.99c.04-.42-.08-.77-.35-1.07-.27-.29-.62-.46-1.06-.5-.43-.04-.81.06-1.13.3s-.5.57-.54.98l-.1,1.08,3.07.29.1-1.08Z"/>
    <path class="cls-1" d="M23.32,41.2l-.96.18-.32,1.77.84.51-.05.28-3.3-2.02.05-.28,3.79-.73-.05.28ZM21.8,43.01l.29-1.58-2.2.42,1.92,1.16Z"/>
    <path class="cls-1" d="M24.31,37.64c-.1.32-.25.57-.46.74-.21.18-.46.27-.73.27l-.06-.27c.23,0,.44-.07.62-.2.18-.14.31-.34.39-.62.08-.28.09-.51,0-.7-.08-.19-.23-.31-.43-.38-.19-.06-.36-.03-.5.08-.15.11-.31.31-.5.58-.07.1-.13.17-.16.22-.03.05-.08.11-.15.2-.06.08-.12.15-.16.18-.04.04-.1.08-.17.13-.07.05-.13.08-.19.09s-.13.02-.21.02c-.08,0-.16-.01-.24-.04-.28-.08-.47-.25-.58-.5-.11-.25-.12-.52-.03-.82.08-.27.22-.48.41-.63.19-.15.41-.24.65-.26l.06.26c-.45.04-.73.28-.86.71-.07.24-.07.44.02.62.08.18.22.3.41.36.19.06.35.03.48-.07.13-.1.29-.29.48-.56.13-.17.23-.3.3-.39s.17-.19.28-.29c.11-.1.23-.16.36-.18s.26-.01.4.03c.29.09.48.26.59.52.11.26.11.56,0,.9Z"/>
    <path class="cls-1" d="M25.43,33.5c.13.31.12.65-.03,1.02s-.37.63-.67.76c-.3.14-.63.14-.98,0l-2.23-.88.1-.25,2.23.88c.28.11.54.11.77.01.24-.1.41-.31.54-.62.12-.31.13-.58.03-.82-.1-.24-.29-.41-.57-.52l-2.23-.88.1-.25,2.23.88c.35.14.59.36.72.67Z"/>
    <path class="cls-1" d="M27.27,30.24l-.98-.09-.79,1.62.67.72-.13.26-2.62-2.84.13-.26,3.85.33-.13.26ZM25.31,31.58l.7-1.44-2.23-.2,1.53,1.64Z"/>
    <path class="cls-1" d="M25.5,26.09l.14-.23,3.07,1.88-.14.23-3.07-1.88Z"/>
    <path class="cls-1" d="M29.88,23.02l.11.08c.37.26.59.61.65,1.04.07.44-.05.87-.35,1.3-.32.45-.72.72-1.22.8-.5.09-.96-.02-1.39-.32s-.68-.7-.77-1.19c-.09-.5.02-.96.33-1.41.19-.27.43-.47.72-.61.29-.13.58-.19.89-.16l-.02.28c-.25-.03-.51,0-.75.12-.25.11-.45.29-.61.51-.27.38-.36.78-.28,1.21.08.42.3.76.67,1.02.37.26.76.35,1.19.28.42-.07.77-.3,1.05-.69.24-.34.35-.69.31-1.04-.04-.34-.19-.63-.46-.86l-.88,1.25-.21-.15,1.04-1.48Z"/>
    <path class="cls-1" d="M33.27,21.58l-1.69-.29-.73.86,1.13.95-.18.21-2.75-2.33.92-1.08c.19-.22.43-.35.72-.37.29-.02.55.06.78.25.19.16.3.35.35.59.05.24.02.46-.08.68l1.73.29-.2.24ZM29.43,20.95l1.23,1.04.74-.88c.14-.17.2-.36.18-.58-.02-.22-.11-.4-.28-.54-.17-.14-.37-.21-.59-.19-.22.02-.4.11-.54.28l-.74.88Z"/>
    <path class="cls-1" d="M34.01,20.42l1.26-1.28.18.18-1.45,1.48-2.57-2.52,1.43-1.46.18.18-1.24,1.27,1,.98,1.15-1.17.18.18-1.15,1.17,1.02,1Z"/>
    <path class="cls-1" d="M36.76,18.21c-.19.17-.39.27-.6.32-.21.05-.41.03-.61-.06l.08-.26c.31.15.62.09.95-.2.2-.18.32-.37.35-.58.03-.21-.04-.4-.2-.59l-1.73-1.96.21-.18,1.73,1.96c.22.25.31.51.27.79-.04.28-.19.53-.44.75Z"/>
    <path class="cls-1" d="M40.23,15.34l-.83-.52-1.44,1.09.27.94-.23.17-1.06-3.71.23-.17,3.29,2.03-.23.17ZM37.89,15.65l1.28-.97-1.9-1.18.63,2.15Z"/>
    <path class="cls-1" d="M44.8,10.87c.15.27.18.55.09.84-.09.29-.26.51-.53.66-.27.15-.55.18-.84.09-.29-.09-.51-.26-.66-.53-.15-.27-.18-.55-.09-.85.09-.29.27-.51.53-.65.27-.15.55-.18.84-.09.29.09.51.26.66.53Z"/>
  </g>
  <g>
    <path class="cls-1" d="M64.55,53.55l-3.73,2.19c-.34.2-.55.57-.55.97v3.91c0,.39.2.76.54.96l3.6,2.19c.34.21.76.22,1.11.03l3.62-2.17c.37-.2.59-.58.59-.99v-3.84c0-.4-.21-.77-.56-.97l-3.48-2.28c-.35-.2-.78-.2-1.13,0Z"/>
    <path class="cls-1" d="M87.41,53.64c0,.13,0,.26,0,.39,0,.38,0,.77,0,1.15,0,.15,0,.3,0,.45,0,.38,0,.76,0,1.15-.02,2.97-.05,5.94-.07,8.91-.02,1.03-.75,2.28-1.64,2.79-.6.34-1.21.69-1.81,1.04-.28.16-.56.32-.84.48-.91.52-1.82,1.04-2.73,1.56-2.52,1.44-5.04,2.88-7.57,4.33-.42.24-.83.48-1.25.71-.26.15-.51.3-.77.44l-.26.15c-.17.1-.34.2-.51.29-.08.05-.17.09-.25.14-.16.09-.32.18-.48.28-.15.09-.31.18-.46.27-.33.19-.67.38-1.01.57-.16.09-.32.18-.47.27-.05.02-.09.05-.13.08-.08.04-.15.08-.21.12-.05.03-.1.06-.15.09-.02,0-.03.02-.05.03-.01,0-.03.02-.04.02-.89.51-2.36.51-3.26,0-6.51-3.72-13.03-7.45-19.54-11.17-.89-.51-1.63-1.78-1.63-2.81v-13.42c0-1.01.71-2.26,1.58-2.78,6.53-3.74,13.06-7.47,19.59-11.21,0,0,0,0,.01,0,.54-.31,1.08-.61,1.62-.92l3.36,2.47v4.26c-.54.31-1.09.62-1.63.93-.01,0-.03.02-.04.02-.03.02-.07.04-.11.06-.62.36-1.24.71-1.86,1.07-2.43,1.39-4.86,2.78-7.29,4.17-.08.04-.15.08-.22.12-1.72.98-3.44,1.97-5.17,2.95-.08.05-.15.09-.23.13-.06.03-.11.07-.17.1-.05.03-.09.05-.14.08-.02.01-.03.02-.05.03-.87.53-1.59,1.77-1.59,2.79v4.9c0,1.03.74,2.29,1.63,2.81,2.25,1.29,4.5,2.57,6.75,3.86l5.12,2.92c.9.52,2.37.52,3.26,0,.01,0,.02,0,.03-.02.03-.01.06-.03.08-.05.24-.14.48-.27.72-.41.11-.06.21-.12.32-.18.19-.11.38-.22.57-.32,2.56-1.47,5.12-2.93,7.67-4.4.68-.39,1.36-.78,2.05-1.17l.03-.02c.9-.51,1.63-1.78,1.63-2.81v-5.33c0-1.03-.73-2.3-1.63-2.8,0,0,0,0-.01-.01-.05-.03-.1-.06-.15-.08-.2-.12-.41-.24-.61-.35-.12-.07-.23-.14-.35-.2-.28-.17-.56-.33-.84-.48-.08-.05-.15-.09-.23-.14-.51-.29-1.01-.58-1.52-.87-.07-.04-.14-.08-.21-.11-.54-.31-1.09-.62-1.63-.93.53-.3,1.05-.6,1.58-.9,1.33-.76,2.65-1.52,3.97-2.28.9-.51,1.63-1.78,1.63-2.81v-5.34c0-.57-.22-1.21-.57-1.76-.27-.42-.62-.78-1-1.01-.03-.02-.07-.04-.1-.06-.02,0-.03-.01-.05-.03-.05-.03-.11-.06-.16-.09l-1.06-.61c-.14-.08-.28-.16-.42-.23-.15-.09-.31-.18-.46-.27-.56-.32-1.11-.64-1.67-.95-.02-.01-.04-.03-.06-.04,0,0,0,0,0,0-.17-.09-.33-.19-.49-.28-.1-.05-.2-.12-.3-.17-.05-.03-.09-.06-.14-.08-.16-.09-.32-.18-.48-.28-.1-.06-.18-.11-.25-.15l-.1-.06-.19-.11-.31-.18-.24-.14-.43-.24-.32-.18-.17-.09-.08-.05-4.06-2.32h0c-.89-.51-2.33-.51-3.23-.02l-5.15,2.91c-2.48,1.41-4.37,2.45-6.86,3.85-.02.02-.17.1-.18.12-.5.47-.63,1.89-.47,2.35l-1.45.85-5.46,3.09c-.54.32-1.09.62-1.63.93v-8.74s0-.07,0-.11c.05-.99.74-2.17,1.58-2.68,6.53-3.73,13.06-7.47,19.6-11.2,0,0,0,0,.01,0,.45-.25,1.03-.38,1.62-.38s1.18.13,1.62.38c5.62,3.21,11.25,6.43,16.87,9.64.64.37,1.28.73,1.91,1.1.04.03.09.05.13.07.02.01.03.02.05.03.03.02.06.04.09.05.87.53,1.58,1.77,1.58,2.79v9.63c0,1.03-.39,2.5-.87,3.27,0,0,0,.01,0,.02-.58.92-1.16,1.84-1.73,2.77.26.28.52.57.78.85.34.37.68.74,1.03,1.11.03.03.06.06.09.1.45.51.8,1.19.81,1.58Z"/>
  </g>
</svg>