<?xml version="1.0" encoding="UTF-8"?>
<svg id="Camada_1" xmlns="http://www.w3.org/2000/svg" viewBox="0 0 185 42">
  <defs>
    <style>
      .cls-1 {
        fill: #fff;
      }

      .cls-2 {
        fill: #ff2c2c;
      }
    </style>
  </defs>
  <path d="M25.74,9.44s-.09-.06-.14-.08l-.03-.02s.1.06.17.1Z"/>
  <path class="cls-1" d="M45.15,8.23h5.43c3.61,0,6.21,1.1,6.21,4.3,0,1.65-.96,3.26-3.03,3.8v.11c2.53.43,3.93,1.78,3.93,4.15,0,3.5-2.8,5.14-6.66,5.14h-5.88V8.23ZM50.31,15.43c2.45,0,3.45-.89,3.45-2.52s-1.12-2.19-3.38-2.19h-2.13v4.71h2.06ZM50.72,23.25c2.57,0,3.94-.88,3.94-2.86,0-1.84-1.33-2.6-3.94-2.6h-2.46v5.46h2.46Z"/>
  <path class="cls-1" d="M60.06,8.25h11.22v2.62h-8.11v4.48h6.87v2.62h-6.87v5.17h8.38v2.62h-11.49V8.25Z"/>
  <path class="cls-1" d="M78.23,10.85h-5.51v-2.62h14.14v2.62h-5.51v14.89h-3.11v-14.89Z"/>
  <path class="cls-1" d="M88.12,8.23h3.13v7.02h5.99v-7.02h3.13v17.5h-3.13v-7.75h-5.99v7.75h-3.13V8.23Z"/>
  <path class="cls-1" d="M103.43,8.23h11.22v2.62h-8.11v4.48h6.87v2.62h-6.87v5.17h8.38v2.62h-11.49V8.23Z"/>
  <path class="cls-1" d="M118.34,8.23h3.1v14.89h8.21v2.62h-11.31V8.23Z"/>
  <g>
    <g>
      <path class="cls-2" d="M20.18,23.38l-2.51,1.47c-.23.14-.37.38-.37.65v2.63c0,.26.14.51.36.65l2.42,1.47c.23.14.51.15.75.02l2.43-1.46c.25-.13.4-.39.4-.67v-2.58c0-.27-.14-.52-.38-.65l-2.34-1.53c-.24-.14-.53-.14-.76,0Z"/>
      <path class="cls-2" d="M35.55,23.45c0,.09,0,.17,0,.27,0,.26,0,.52,0,.77,0,.1,0,.2,0,.3,0,.26,0,.51,0,.77-.02,2-.03,4-.05,6-.01.69-.51,1.53-1.11,1.88-.41.23-.81.46-1.22.7-.19.11-.38.21-.56.32-.61.35-1.23.7-1.84,1.05-1.7.97-3.39,1.94-5.09,2.91-.28.16-.56.32-.84.48-.17.1-.35.2-.52.3l-.17.1c-.11.07-.23.13-.34.19-.06.03-.11.06-.17.1-.11.06-.22.12-.33.19-.1.06-.21.12-.31.18-.22.13-.45.26-.68.38-.11.06-.21.12-.32.18-.03.02-.06.03-.09.05-.06.03-.1.06-.14.08-.03.02-.07.04-.1.06-.01,0-.02.01-.03.02-.01,0-.02.01-.03.02-.6.35-1.59.35-2.19,0-4.38-2.5-8.77-5.01-13.15-7.52-.6-.35-1.1-1.19-1.1-1.89v-9.03c0-.68.48-1.52,1.07-1.87,4.39-2.52,8.79-5.03,13.18-7.54,0,0,0,0,0,0,.36-.21.72-.41,1.09-.62l2.26,1.66v2.86c-.37.21-.73.42-1.1.63,0,0-.02.01-.03.02-.02.01-.05.03-.07.04-.42.24-.83.48-1.25.72-1.63.93-3.27,1.87-4.9,2.81-.05.03-.1.06-.15.08-1.16.66-2.32,1.33-3.48,1.99-.05.03-.1.06-.16.09-.04.02-.08.05-.11.07-.03.02-.06.04-.09.05-.01,0-.02.01-.04.02-.59.36-1.07,1.19-1.07,1.87v3.29c0,.69.5,1.54,1.1,1.89,1.51.87,3.03,1.73,4.54,2.6l3.45,1.97c.6.35,1.59.35,2.19,0,0,0,.01,0,.02-.01.02-.01.04-.02.06-.03.16-.09.32-.18.48-.28.07-.04.14-.08.22-.12.13-.07.26-.15.39-.22,1.72-.99,3.44-1.97,5.16-2.96.46-.26.92-.52,1.38-.79l.02-.02c.6-.34,1.1-1.19,1.1-1.89v-3.59c0-.69-.49-1.55-1.1-1.89,0,0,0,0,0,0-.03-.02-.07-.04-.1-.06-.14-.08-.28-.16-.41-.24-.08-.05-.16-.09-.23-.13-.19-.11-.38-.22-.56-.32-.05-.03-.1-.06-.16-.09-.34-.19-.68-.39-1.02-.59-.05-.03-.09-.05-.14-.08-.37-.21-.73-.42-1.1-.63.35-.2.71-.41,1.06-.61.89-.51,1.78-1.02,2.67-1.53.6-.35,1.1-1.19,1.1-1.89v-3.59c0-.38-.15-.82-.38-1.18-.18-.28-.42-.53-.67-.68-.02-.02-.05-.03-.07-.04-.01,0-.02-.01-.04-.02-.04-.02-.07-.04-.11-.06l-.71-.41c-.09-.05-.19-.11-.28-.16-.1-.06-.21-.12-.31-.18-.37-.21-.75-.43-1.12-.64-.01,0-.03-.02-.04-.03,0,0,0,0,0,0-.11-.06-.22-.13-.33-.19-.07-.04-.14-.08-.2-.12-.03-.02-.06-.04-.1-.05-.11-.06-.22-.12-.33-.19-.07-.04-.12-.08-.17-.1l-.07-.04-.13-.07-.21-.12-.16-.09-.29-.16-.21-.12-.11-.06-.06-.03-2.73-1.56h0c-.6-.34-1.57-.34-2.17-.01l-3.47,1.96c-1.67.95-2.94,1.65-4.61,2.59-.01.01-.11.07-.12.08-.34.32-.42,1.27-.32,1.58l-.97.57-3.67,2.08c-.37.21-.73.42-1.1.62v-5.88s0-.05,0-.07c.03-.67.5-1.46,1.06-1.8,4.4-2.51,8.79-5.02,13.18-7.54,0,0,0,0,0,0,.3-.17.69-.26,1.09-.26s.79.09,1.09.26c3.78,2.16,7.57,4.33,11.35,6.49.43.25.86.49,1.29.74.03.02.06.03.09.05.01,0,.02.01.03.02.02.02.04.03.06.04.59.36,1.06,1.19,1.06,1.87v6.48c0,.69-.26,1.68-.59,2.2,0,0,0,0,0,.01-.39.62-.78,1.24-1.16,1.86.17.19.35.38.53.57.23.25.46.5.69.75.02.02.04.04.06.07.3.35.54.8.55,1.06Z"/>
    </g>
    <g>
      <path class="cls-2" d="M133.87,23.46l1.07-1.45c1.07,1.07,2.57,2.01,4.66,2.01,2.21,0,3.87-1.2,3.87-3.11,0-2.03-1.63-3.4-5.88-3.4v-1.69c3.84,0,5.32-1.39,5.32-3.19,0-1.63-1.35-2.68-3.31-2.68-1.53,0-2.93.72-3.99,1.71l-1.12-1.39c1.35-1.23,3.1-2.14,5.19-2.14,3.05,0,5.37,1.58,5.37,4.34,0,2.06-1.45,3.37-3.46,4.07v.11c2.16.48,4.02,1.98,4.02,4.34,0,3.03-2.65,4.87-5.88,4.87-2.8,0-4.66-1.15-5.85-2.41Z"/>
      <path class="cls-2" d="M148.12,17.65c0-6.85,3.26-9.5,6.79-9.5,1.98,0,3.46.78,4.53,1.82l-1.17,1.39c-.84-.83-2.01-1.37-3.23-1.37-2.65,0-4.94,1.95-4.94,7.66,0,4.2,1.53,6.48,4.22,6.48,1.91,0,3.41-1.5,3.41-3.75s-1.2-3.61-3.43-3.61c-1.3,0-2.85.67-4.25,2.41l-.08-1.74c1.35-1.42,3.03-2.33,4.71-2.33,3,0,5.06,1.77,5.06,5.27,0,3.27-2.52,5.49-5.42,5.49-3.54,0-6.21-2.73-6.21-8.22Z"/>
      <path class="cls-2" d="M167.53,8.14c-3.61,0-5.83,3.08-5.83,8.81s2.21,8.92,5.83,8.92,5.83-3.24,5.83-8.92-2.22-8.81-5.83-8.81ZM167.53,24.07c-2.26,0-3.87-2.22-3.87-7.12s1.6-7.01,3.87-7.01,3.87,2.11,3.87,7.01-1.6,7.12-3.87,7.12Z"/>
      <path class="cls-2" d="M167.53,8.14c-3.61,0-5.83,3.08-5.83,8.81s2.21,8.92,5.83,8.92,5.83-3.24,5.83-8.92-2.22-8.81-5.83-8.81ZM167.53,24.07c-2.26,0-3.87-2.22-3.87-7.12s1.6-7.01,3.87-7.01,3.87,2.11,3.87,7.01-1.6,7.12-3.87,7.12Z"/>
      <path class="cls-2" d="M177.55,6.83c-1.21,0-2.28.92-2.28,2.43s1.06,2.46,2.28,2.46,2.28-.92,2.28-2.46-1.06-2.43-2.28-2.43ZM177.55,10.69c-.7,0-1.32-.53-1.32-1.42s.62-1.4,1.32-1.4,1.32.53,1.32,1.4-.62,1.42-1.32,1.42Z"/>
    </g>
  </g>
  <g>
    <path class="cls-1" d="M46.87,34.26l.99-3.05h.74l-1.4,3.9h-.66l-1.4-3.9h.74l.98,3.05Z"/>
    <path class="cls-1" d="M51.32,35.11h-.67v-3.9h.67v3.9Z"/>
    <path class="cls-1" d="M55.74,34.11c0-.17-.06-.3-.18-.4-.12-.09-.34-.19-.65-.28s-.56-.2-.75-.32c-.35-.22-.53-.51-.53-.87,0-.31.13-.57.38-.78.26-.2.59-.31,1-.31.27,0,.51.05.73.15s.38.24.5.43c.12.18.18.39.18.61h-.67c0-.2-.06-.36-.19-.48-.13-.12-.31-.17-.55-.17-.22,0-.39.05-.52.14-.12.09-.18.23-.18.4,0,.14.07.26.2.36s.35.19.65.28c.3.09.55.19.73.31.18.11.32.25.4.4.09.15.13.32.13.52,0,.32-.12.58-.37.77s-.59.29-1.01.29c-.28,0-.54-.05-.78-.16s-.42-.25-.55-.43c-.13-.18-.2-.4-.2-.64h.68c0,.22.07.39.22.51.15.12.36.18.63.18.24,0,.41-.05.53-.14.12-.1.18-.22.18-.38Z"/>
    <path class="cls-1" d="M60.75,34.21h-1.51l-.32.91h-.7l1.47-3.9h.61l1.47,3.9h-.71l-.32-.91ZM60.99,30.23c0,.2-.06.36-.17.49-.11.13-.26.2-.43.2-.07,0-.13,0-.18-.02-.05-.02-.12-.05-.22-.1-.09-.05-.16-.09-.2-.1-.04-.01-.08-.02-.13-.02-.07,0-.13.03-.17.08s-.07.12-.07.2l-.4-.02c0-.2.06-.36.17-.5.11-.13.25-.2.42-.2.1,0,.22.04.37.12.14.08.26.12.35.12.07,0,.13-.03.17-.08.05-.05.07-.12.07-.2l.4.03ZM59.43,33.66h1.13l-.56-1.62-.56,1.62Z"/>
    <path class="cls-1" d="M66.89,33.27c0,.38-.07.72-.2,1-.13.29-.32.51-.57.66s-.53.23-.85.23-.6-.08-.84-.23c-.25-.15-.44-.37-.57-.66-.13-.29-.2-.61-.2-.99v-.22c0-.38.07-.72.2-1.01.13-.29.32-.51.57-.67s.53-.23.84-.23.6.08.84.23c.25.15.43.37.57.66.13.29.2.62.2,1v.22ZM66.21,33.06c0-.43-.08-.76-.24-.99-.16-.23-.4-.35-.69-.35s-.52.11-.69.34c-.16.23-.25.55-.25.97v.22c0,.43.08.76.25.99s.4.35.69.35.53-.11.69-.34c.16-.23.24-.56.24-1v-.2Z"/>
    <path class="cls-1" d="M75.01,33.84c-.04.42-.19.74-.46.97s-.62.35-1.07.35c-.31,0-.58-.07-.82-.22-.24-.15-.42-.36-.55-.63-.13-.27-.2-.59-.2-.94v-.36c0-.37.07-.69.2-.97.13-.28.32-.5.56-.65.24-.15.53-.23.84-.23.43,0,.78.12,1.04.35.26.23.42.56.46.99h-.67c-.03-.28-.11-.48-.24-.61-.13-.12-.32-.19-.58-.19-.29,0-.52.11-.68.32s-.24.53-.24.95v.35c0,.42.08.74.23.96.15.22.37.33.66.33.27,0,.47-.06.6-.18.13-.12.22-.32.25-.6h.67Z"/>
    <path class="cls-1" d="M80.28,33.27c0,.38-.07.72-.2,1-.13.29-.32.51-.57.66s-.53.23-.85.23-.6-.08-.84-.23c-.25-.15-.44-.37-.57-.66-.13-.29-.2-.61-.2-.99v-.22c0-.38.07-.72.2-1.01.13-.29.32-.51.57-.67s.53-.23.84-.23.6.08.84.23c.25.15.43.37.57.66.13.29.2.62.2,1v.22ZM79.61,33.06c0-.43-.08-.76-.24-.99-.16-.23-.4-.35-.69-.35s-.52.11-.69.34c-.16.23-.25.55-.25.97v.22c0,.43.08.76.25.99s.4.35.69.35.53-.11.69-.34c.16-.23.24-.56.24-1v-.2Z"/>
    <path class="cls-1" d="M83.39,31.22l1.12,2.99,1.12-2.99h.88v3.9h-.67v-1.28l.07-1.72-1.15,3h-.48l-1.15-3,.07,1.72v1.28h-.67v-3.9h.88Z"/>
    <path class="cls-1" d="M89.55,33.67v1.45h-.68v-3.9h1.49c.44,0,.78.11,1.04.34s.38.53.38.9-.13.68-.38.89c-.25.21-.6.32-1.05.32h-.81ZM89.55,33.12h.81c.24,0,.42-.06.55-.17s.19-.28.19-.49-.06-.38-.19-.5-.31-.19-.53-.19h-.83v1.36Z"/>
    <path class="cls-1" d="M94.61,34.57h1.77v.54h-2.45v-3.9h.68v3.36Z"/>
    <path class="cls-1" d="M100.73,33.37h-1.6v1.2h1.87v.54h-2.55v-3.9h2.53v.55h-1.85v1.08h1.6v.54Z"/>
    <path class="cls-1" d="M105.98,31.76h-1.21v3.35h-.67v-3.35h-1.2v-.55h3.09v.55Z"/>
    <path class="cls-1" d="M109.9,34.21h-1.51l-.32.91h-.7l1.47-3.9h.61l1.47,3.9h-.71l-.32-.91ZM108.58,33.66h1.13l-.56-1.62-.56,1.62Z"/>
    <path class="cls-1" d="M115.85,35.11v-3.9h1.15c.34,0,.65.08.92.23.27.15.47.37.62.65.15.28.22.6.22.97v.2c0,.37-.07.69-.22.97-.15.28-.36.5-.63.65-.27.15-.58.23-.94.23h-1.12ZM116.52,31.76v2.81h.44c.35,0,.63-.11.82-.33.19-.22.29-.54.29-.96v-.22c0-.42-.09-.75-.28-.97-.18-.22-.45-.33-.8-.33h-.47Z"/>
    <path class="cls-1" d="M123.17,34.21h-1.51l-.32.91h-.7l1.47-3.9h.61l1.47,3.9h-.71l-.32-.91ZM121.85,33.66h1.13l-.56-1.62-.56,1.62Z"/>
    <path class="cls-1" d="M131.15,34.11c0-.17-.06-.3-.18-.4-.12-.09-.34-.19-.65-.28s-.56-.2-.75-.32c-.35-.22-.53-.51-.53-.87,0-.31.13-.57.38-.78.26-.2.59-.31,1-.31.27,0,.51.05.73.15s.38.24.5.43c.12.18.18.39.18.61h-.67c0-.2-.06-.36-.19-.48-.13-.12-.31-.17-.55-.17-.22,0-.39.05-.52.14-.12.09-.18.23-.18.4,0,.14.07.26.2.36s.35.19.65.28c.3.09.55.19.73.31.18.11.32.25.4.4.09.15.13.32.13.52,0,.32-.12.58-.37.77s-.59.29-1.01.29c-.28,0-.54-.05-.78-.16s-.42-.25-.55-.43c-.13-.18-.2-.4-.2-.64h.68c0,.22.07.39.22.51.15.12.36.18.63.18.24,0,.41-.05.53-.14.12-.1.18-.22.18-.38Z"/>
    <path class="cls-1" d="M136.83,31.22v2.6c0,.41-.13.74-.4.98-.26.24-.62.36-1.06.36s-.8-.12-1.06-.36c-.26-.24-.39-.57-.39-.99v-2.6h.67v2.61c0,.26.07.46.2.6.13.14.33.21.58.21.52,0,.78-.27.78-.82v-2.59h.67Z"/>
    <path class="cls-1" d="M141.23,34.21h-1.51l-.32.91h-.7l1.47-3.9h.61l1.47,3.9h-.71l-.32-.91ZM139.91,33.66h1.13l-.56-1.62-.56,1.62Z"/>
    <path class="cls-1" d="M147.89,35.11h-.67v-3.9h.67v3.9Z"/>
    <path class="cls-1" d="M153.26,34.61c-.14.18-.34.32-.59.42s-.53.14-.85.14-.62-.07-.87-.22-.45-.36-.58-.64c-.14-.28-.21-.6-.21-.96v-.31c0-.59.14-1.05.42-1.38.28-.33.68-.5,1.18-.5.43,0,.78.11,1.03.32.26.21.41.52.46.93h-.66c-.07-.47-.35-.7-.82-.7-.3,0-.53.11-.69.33s-.24.54-.24.96v.3c0,.42.09.75.27.98.18.23.42.35.74.35.35,0,.59-.08.74-.24v-.76h-.8v-.51h1.48v1.49Z"/>
    <path class="cls-1" d="M156.99,33.61h-.75v1.5h-.68v-3.9h1.37c.45,0,.8.1,1.04.3.24.2.37.49.37.88,0,.26-.06.48-.19.65s-.3.31-.53.41l.88,1.62v.03h-.73l-.78-1.5ZM156.24,33.07h.7c.23,0,.41-.06.54-.17.13-.12.19-.27.19-.47s-.06-.37-.18-.48-.3-.17-.53-.18h-.71v1.31Z"/>
    <path class="cls-1" d="M162.82,33.37h-1.6v1.2h1.87v.54h-2.55v-3.9h2.53v.55h-1.85v1.08h1.6v.54Z"/>
    <path class="cls-1" d="M166.79,31.22h.67v2.73c0,.37-.12.67-.35.89-.23.22-.54.33-.92.33-.41,0-.72-.1-.94-.31-.22-.21-.33-.49-.33-.86h.67c0,.21.05.36.15.47.1.1.25.16.45.16.18,0,.33-.06.44-.18.11-.12.16-.29.16-.5v-2.73Z"/>
    <path class="cls-1" d="M171.97,34.21h-1.51l-.32.91h-.7l1.47-3.9h.61l1.47,3.9h-.71l-.32-.91ZM170.66,33.66h1.13l-.56-1.62-.56,1.62Z"/>
  </g>
</svg>