<?xml version="1.0" encoding="UTF-8"?>
<svg id="Camada_1" xmlns="http://www.w3.org/2000/svg" viewBox="0 0 32 32">
  <defs>
    <style>
      .cls-1 {
        fill: #040404;
      }
    </style>
  </defs>
  <path class="cls-1" d="M15.85,25.99c-.39.43-.75.81-1.1,1.2-1.03,1.13-2.06,2.26-3.09,3.38-.56.6-1.44.45-1.7-.29-.06-.18-.05-.36-.05-.54,0-4.96,0-9.92,0-14.88,0-2.32,0-4.64,0-6.97,0-.56.3-.93.8-1.03.36-.07.65.08.92.31,1.34,1.19,2.69,2.37,4.03,3.56,4.12,3.64,8.24,7.27,12.37,10.91.55.49.59,1.12.11,1.56-.23.2-.5.25-.79.26-1.93.03-3.87.07-5.8.1-.09,0-.18,0-.29.01.04.24.16.43.25.63.62,1.38,1.25,2.76,1.87,4.14.33.73.15,1.21-.57,1.54-1.1.5-2.2,1-3.31,1.49-.65.29-1.15.1-1.45-.56-.69-1.53-1.38-3.06-2.07-4.59-.03-.06-.06-.13-.11-.24ZM24.9,21.49c-4.34-3.83-8.66-7.64-13.01-11.48v17.34c.14-.03.18-.13.25-.21,1.05-1.14,2.09-2.28,3.14-3.42.68-.74,1.43-.62,1.84.29.66,1.46,1.32,2.93,1.98,4.39.12.26.25.53.38.81.61-.28,1.18-.54,1.77-.81-.04-.09-.06-.13-.08-.18-.76-1.7-1.53-3.39-2.3-5.09-.38-.83.04-1.51.95-1.52,1.58-.03,3.16-.05,4.74-.08.1,0,.2.03.34-.06Z"/>
  <path class="cls-1" d="M12.32,5.23c-.76,0-1.25-.62-1.03-1.23.34-.98.71-1.95,1.09-2.91.2-.49.73-.7,1.22-.53.47.17.77.66.6,1.15-.34,1.01-.73,2-1.12,2.99-.14.36-.47.52-.75.53Z"/>
  <path class="cls-1" d="M4.52,4.44c.12,0,.24.02.36.07.88.34,1.77.67,2.65,1,.59.23.85.76.64,1.29-.2.52-.74.76-1.31.55-.9-.33-1.81-.67-2.7-1.03-.47-.19-.7-.64-.6-1.11.1-.46.49-.77.96-.77Z"/>
  <path class="cls-1" d="M3.73,10.48c0-.26.19-.57.55-.74.91-.42,1.82-.84,2.75-1.24.48-.21,1.01.02,1.23.48.22.46.07,1.03-.4,1.26-.93.45-1.87.88-2.83,1.28-.63.26-1.29-.23-1.3-1.05Z"/>
  <path class="cls-1" d="M18.04,5.13c0,.29-.18.6-.53.76-.91.43-1.82.84-2.75,1.24-.52.22-1.05-.02-1.27-.51-.21-.5,0-1.03.51-1.27.87-.41,1.75-.81,2.63-1.19.7-.3,1.4.15,1.4.98Z"/>
  <path class="cls-1" d="M9.2,5.3c-.29,0-.61-.18-.78-.54-.42-.9-.83-1.81-1.23-2.72-.22-.51.02-1.05.51-1.27.48-.21,1.03-.02,1.26.48.42.89.83,1.78,1.22,2.69.28.66-.18,1.35-.99,1.36Z"/>
</svg>