<svg xmlns="http://www.w3.org/2000/svg" viewBox="0 0 512 512" fill="currentColor">
<g fill-rule="evenodd">
<path d="M151 151 L146 146 L144 145 L135 145 L125 150 L123 150 L116 154 L114 154 L105 159 L103 159 L97 162 L93 166 L92 168 L92 171 L91 172 L92 178 L93 180 L98 185 L100 185 L101 186 L107 186 L115 182 L117 182 L124 178 L126 178 L135 173 L137 173 L147 168 L150 165 L152 161 L152 154 L151 153 Z"/>
<path d="M181 124 L177 126 L174 129 L173 133 L172 134 L172 429 L173 430 L173 432 L177 437 L181 439 L189 439 L190 438 L192 438 L212 417 L212 416 L222 406 L222 405 L233 394 L233 393 L244 382 L244 381 L248 377 L251 377 L255 384 L255 386 L259 393 L259 395 L264 404 L264 406 L268 413 L268 415 L273 424 L273 426 L277 433 L277 435 L280 441 L284 445 L286 446 L296 446 L308 440 L310 440 L319 435 L321 435 L328 431 L330 431 L339 426 L341 426 L345 424 L349 420 L350 418 L351 411 L350 410 L349 405 L345 398 L345 396 L340 387 L340 385 L336 378 L336 376 L331 367 L331 365 L322 347 L322 344 L323 343 L327 343 L328 342 L381 342 L382 341 L406 341 L407 340 L409 340 L414 335 L415 333 L415 324 L413 320 L411 318 L410 318 L393 302 L392 302 L376 287 L375 287 L368 280 L367 280 L359 272 L358 272 L351 265 L350 265 L342 257 L341 257 L334 250 L333 250 L325 242 L324 242 L317 235 L316 235 L308 227 L307 227 L300 220 L299 220 L291 212 L290 212 L283 205 L282 205 L274 197 L273 197 L266 190 L265 190 L257 182 L256 182 L249 175 L248 175 L240 167 L239 167 L232 160 L231 160 L223 152 L222 152 L215 145 L214 145 L207 138 L206 138 L198 130 L197 130 L193 126 L189 124 Z"/>
<path d="M199 168 L201 168 L206 173 L207 173 L223 188 L224 188 L231 195 L232 195 L240 203 L241 203 L248 210 L249 210 L257 218 L258 218 L265 225 L266 225 L273 232 L274 232 L282 240 L283 240 L290 247 L291 247 L299 255 L300 255 L307 262 L308 262 L316 270 L317 270 L324 277 L325 277 L333 285 L334 285 L341 292 L342 292 L350 300 L351 300 L365 313 L365 315 L364 316 L353 316 L352 317 L299 317 L298 318 L295 318 L290 322 L288 326 L288 334 L289 335 L289 337 L293 344 L293 346 L298 355 L298 357 L302 364 L302 366 L307 375 L307 377 L312 386 L312 388 L320 404 L320 406 L319 407 L311 411 L309 411 L300 416 L298 416 L295 412 L295 410 L291 403 L291 401 L286 392 L286 390 L281 381 L281 379 L277 372 L277 370 L272 361 L272 359 L267 350 L267 348 L265 344 L261 340 L259 339 L250 339 L246 341 L226 362 L226 363 L214 375 L214 376 L203 387 L203 388 L201 390 L199 390 L198 389 L198 169 Z"/>
<path d="M89 101 L89 109 L91 113 L94 116 L98 118 L103 119 L106 121 L111 122 L114 124 L119 125 L127 129 L129 129 L133 131 L142 131 L146 129 L148 127 L150 123 L150 114 L149 112 L144 107 L142 107 L134 103 L129 102 L126 100 L121 99 L118 97 L113 96 L110 94 L108 94 L104 92 L96 93 L91 97 Z"/>
<path d="M278 94 L275 91 L275 90 L271 88 L269 88 L268 87 L264 87 L263 88 L258 89 L249 94 L247 94 L240 98 L238 98 L229 103 L227 103 L223 106 L222 106 L219 110 L219 112 L218 113 L218 118 L219 119 L219 121 L220 123 L224 127 L232 129 L233 128 L236 128 L239 126 L241 126 L248 122 L250 122 L270 112 L272 112 L275 109 L276 109 L276 108 L278 106 L278 104 L279 103 L279 97 L278 96 Z"/>
<path d="M143 44 L138 48 L136 52 L136 60 L139 65 L139 67 L143 74 L143 76 L148 85 L148 87 L154 99 L159 103 L169 103 L173 101 L175 99 L177 95 L177 87 L176 86 L176 84 L172 77 L172 75 L167 66 L167 64 L162 55 L162 53 L160 49 L156 45 L152 44 L151 43 L146 43 L145 44 Z"/>
<path d="M223 42 L221 42 L220 41 L212 41 L206 45 L203 51 L202 56 L200 59 L199 64 L197 67 L196 72 L194 75 L194 77 L192 80 L192 82 L190 86 L190 94 L192 98 L197 102 L199 102 L200 103 L205 103 L206 102 L210 101 L213 98 L216 92 L217 87 L219 84 L219 82 L221 79 L222 74 L224 71 L225 66 L227 63 L227 61 L229 57 L229 50 L227 46 Z"/>
</g></svg>